<?xml version="1.0" standalone="no"?>
<!DOCTYPE svg PUBLIC "-//W3C//DTD SVG 20010904//EN"
 "http://www.w3.org/TR/2001/REC-SVG-20010904/DTD/svg10.dtd">
<svg version="1.0" xmlns="http://www.w3.org/2000/svg"
 width="439.000000pt" height="568.000000pt" viewBox="0 0 439.000000 568.000000"
 preserveAspectRatio="xMidYMid meet">

<g transform="translate(0.000000,568.000000) scale(0.100000,-0.100000)"
fill="#000000" stroke="none">
<path d="M2128 4326 c-9 -7 -50 -42 -90 -78 -40 -36 -188 -166 -328 -288 -140
-122 -271 -237 -290 -254 -19 -18 -91 -81 -160 -141 -289 -253 -471 -417 -480
-435 -15 -28 -12 -48 7 -58 18 -9 162 0 202 13 l21 6 0 -633 0 -634 36 -35 35
-34 134 -3 c157 -4 198 8 222 66 l14 34 662 -6 c759 -7 803 -9 818 -37 24 -46
66 -59 195 -59 140 0 176 9 204 55 20 32 20 47 20 653 0 407 3 623 10 627 6 3
62 1 126 -5 122 -12 144 -7 144 30 0 10 -58 65 -137 131 -146 121 -670 556
-788 655 -39 33 -93 77 -120 99 -28 22 -54 45 -60 51 -5 6 -37 33 -70 59 -51
41 -146 120 -254 212 -30 25 -49 28 -73 9z m104 -333 c18 -15 40 -35 48 -43 8
-8 40 -36 70 -60 30 -25 61 -52 70 -60 8 -8 60 -52 115 -96 55 -45 112 -93
127 -106 14 -14 95 -80 180 -147 84 -66 179 -142 210 -168 32 -27 63 -52 70
-58 140 -111 156 -127 162 -160 11 -59 -4 -1248 -16 -1262 -12 -15 -254 -18
-277 -4 -12 8 -15 54 -15 266 -1 241 -2 257 -20 271 -16 11 -144 14 -778 14
-751 0 -758 0 -778 -20 -20 -20 -21 -31 -19 -271 2 -208 0 -252 -12 -260 -8
-5 -71 -9 -141 -9 -120 0 -128 1 -142 22 -14 20 -16 98 -16 646 l0 624 33 31
c17 16 147 122 287 233 140 112 284 228 320 258 159 133 215 181 220 186 3 3
34 30 70 60 36 30 87 74 114 98 26 23 56 42 66 42 10 0 33 -12 52 -27z m1284
-861 c-22 -5 -30 3 -21 18 5 8 11 7 22 -2 15 -12 14 -13 -1 -16z m-2636 3 c0
-8 -7 -15 -15 -15 -16 0 -20 12 -8 23 11 12 23 8 23 -8z m2547 9 c-3 -3 -12
-4 -19 -1 -8 3 -5 6 6 6 11 1 17 -2 13 -5z m-2460 -10 c-3 -3 -12 -4 -19 -1
-8 3 -5 6 6 6 11 1 17 -2 13 -5z m1953 -844 l0 -30 -447 0 c-247 0 -571 -2
-720 -4 -150 -2 -282 -2 -293 1 -19 5 -28 42 -13 56 3 4 336 7 740 7 l733 0 0
-30z m-15 -125 l0 -60 -725 0 -725 0 -3 57 -3 58 288 2 c158 2 486 3 728 3
l440 0 0 -60z m3 -119 c7 -4 12 -28 11 -59 -1 -94 22 -87 -284 -88 -149 -1
-475 1 -725 4 l-455 5 -3 70 -3 71 83 3 c180 6 1364 1 1376 -6z"/>
<path d="M1405 3079 c-17 -18 -19 -41 -20 -261 0 -183 3 -245 13 -259 13 -18
43 -19 781 -19 643 0 770 2 780 14 8 9 14 97 18 255 l6 241 -23 25 -23 25
-757 0 c-750 0 -757 0 -775 -21z m1503 -263 c1 -124 -2 -214 -7 -219 -5 -5
-17 -7 -26 -3 -15 5 -15 8 -1 28 33 47 15 127 -39 178 -35 33 -80 100 -88 132
-10 38 -52 78 -83 78 -33 0 -94 -61 -94 -95 0 -33 -26 -55 -65 -55 -39 0 -92
-39 -97 -71 -3 -21 -3 -21 -28 1 -14 12 -30 25 -36 28 -7 4 -28 42 -48 84 -38
80 -65 108 -102 108 -36 0 -82 -47 -97 -98 -13 -44 -16 -47 -54 -52 -51 -8
-91 -33 -99 -65 -3 -14 -8 -25 -10 -25 -13 0 -84 78 -84 92 0 9 -4 20 -10 23
-5 3 -20 29 -31 56 -12 27 -30 54 -40 60 -43 22 -129 -31 -129 -80 0 -36 -27
-61 -69 -61 -40 -1 -59 -12 -85 -52 -21 -33 -17 -60 21 -134 15 -29 24 -58 20
-67 -8 -22 -63 -23 -71 -1 -8 22 -8 409 1 417 3 4 331 6 727 5 l721 -3 3 -209z
m-1158 92 c0 -11 11 -33 25 -50 14 -16 25 -38 25 -48 0 -10 15 -29 33 -41 70
-50 77 -96 22 -149 -34 -33 -39 -34 -113 -35 -103 0 -127 15 -174 110 -26 53
-33 76 -25 84 16 16 57 14 57 -3 0 -14 9 -15 45 -3 19 6 38 47 52 107 12 52
53 74 53 28z m489 -41 c21 -44 51 -88 78 -113 44 -42 51 -65 32 -107 -19 -41
-66 -61 -144 -61 -81 0 -124 18 -144 61 -8 15 -24 49 -37 74 l-24 46 26 14
c23 12 27 11 40 -6 14 -18 17 -19 42 -5 15 9 28 25 30 35 2 11 10 34 17 50 7
17 17 42 23 58 7 15 15 27 19 27 5 0 23 -33 42 -73z m441 44 c0 -10 7 -24 16
-32 21 -17 46 -68 39 -79 -3 -5 12 -21 34 -34 22 -14 45 -35 51 -46 18 -33 2
-77 -37 -108 -32 -24 -44 -27 -113 -26 -102 1 -126 16 -169 107 -32 67 -32 71
-15 84 24 17 44 17 44 -2 0 -33 68 -2 76 34 3 14 9 34 15 43 5 10 9 25 9 35 0
19 31 53 43 46 4 -2 7 -12 7 -22z m-695 -261 c22 -42 19 -50 -16 -50 -29 0
-30 1 -24 33 13 56 18 59 40 17z m470 -6 c19 -47 21 -44 -20 -44 -23 0 -33 4
-30 13 18 50 25 67 30 67 2 0 12 -16 20 -36z"/>
<path d="M1994 2176 c-3 -8 -4 -23 -2 -33 3 -17 22 -18 273 -21 148 -1 275 0
281 2 6 2 9 18 6 35 l-4 31 -274 0 c-230 0 -276 -2 -280 -14z"/>
<path d="M1982 2017 c-7 -8 -8 -24 -3 -43 l7 -29 285 0 284 0 0 40 0 40 -281
3 c-224 2 -284 0 -292 -11z"/>
<path d="M1035 1550 l-120 -5 -3 -130 c-4 -194 -24 -175 188 -175 l180 0 0 45
0 44 -112 3 c-76 2 -113 7 -115 15 -3 9 21 13 89 15 l93 3 0 30 0 30 -89 5
c-57 3 -91 9 -93 17 -3 9 24 13 104 15 l108 3 3 38 c2 24 -1 39 -10 41 -27 9
-107 11 -223 6z m213 -42 c-3 -22 -9 -23 -103 -28 -99 -5 -100 -5 -100 -30 0
-24 2 -25 83 -28 73 -2 82 -5 82 -22 0 -17 -9 -20 -82 -22 l-83 -3 0 -30 0
-30 108 -3 c106 -3 107 -3 107 -27 l0 -25 -160 0 -160 0 0 135 0 135 156 0
155 0 -3 -22z"/>
<path d="M2114 1551 c-82 -21 -124 -71 -124 -146 0 -115 73 -168 222 -162 125
5 185 47 195 139 7 63 -24 121 -80 149 -46 24 -158 34 -213 20z m171 -22 c22
-6 55 -25 73 -42 27 -26 32 -38 32 -78 0 -97 -44 -136 -165 -148 -159 -15
-248 58 -215 177 5 21 19 47 29 56 46 42 161 58 246 35z"/>
<path d="M2136 1459 c-45 -35 -28 -125 26 -136 34 -7 32 -7 69 1 40 8 64 60
48 106 -18 52 -94 67 -143 29z m114 -19 c62 -62 -41 -144 -106 -84 -29 28 -30
43 -3 78 26 33 79 36 109 6z"/>
<path d="M3248 1549 c-5 -3 -8 -24 -6 -45 l3 -39 55 -5 55 -5 0 -105 0 -105
70 0 70 0 3 107 3 107 52 3 52 3 3 43 c3 38 1 42 -20 42 -13 0 -92 2 -176 3
-85 1 -158 -1 -164 -4z m340 -41 c-3 -20 -10 -24 -58 -28 l-55 -5 -3 -108 -3
-108 -47 3 -47 3 -3 108 -3 107 -54 0 c-53 0 -68 10 -57 38 3 9 46 12 169 12
l164 0 -3 -22z"/>
<path d="M1547 1543 c-9 -8 -9 -266 -1 -287 8 -20 133 -24 135 -3 1 6 2 26 3
42 l1 30 90 6 c53 3 105 13 126 23 83 39 76 145 -11 180 -31 12 -75 16 -189
16 -81 0 -151 -3 -154 -7z m341 -29 c45 -18 66 -67 46 -106 -21 -41 -49 -51
-157 -56 -103 -5 -104 -5 -110 -57 -4 -29 -6 -30 -53 -30 l-49 0 0 130 0 130
120 5 c131 6 153 4 203 -16z"/>
<path d="M1669 1475 c-4 -3 -3 -20 0 -38 7 -32 7 -32 71 -32 69 -1 100 10 100
35 0 8 -8 20 -17 26 -19 12 -145 19 -154 9z m146 -35 c0 -11 -15 -16 -62 -18
-58 -3 -63 -1 -63 18 0 19 5 21 63 18 47 -2 62 -7 62 -18z"/>
<path d="M2440 1448 c0 -125 15 -158 87 -190 62 -27 180 -22 234 11 49 29 60
59 67 179 l5 102 -72 0 -71 0 0 -79 c0 -106 -10 -131 -52 -131 -57 0 -62 9
-65 112 l-2 93 -66 3 -65 3 0 -103z m120 8 c0 -89 11 -123 44 -136 68 -25 114
35 102 134 -7 67 1 78 55 74 43 -3 44 -3 47 -43 6 -66 -8 -162 -26 -183 -37
-42 -185 -59 -254 -29 -53 23 -68 58 -68 167 l0 90 50 0 50 0 0 -74z"/>
<path d="M2872 1398 l3 -153 175 0 175 0 0 40 0 40 -107 3 -108 3 -1 67 c-1
37 -1 82 0 101 4 43 -9 51 -82 51 l-58 0 3 -152z m118 34 c0 -63 4 -102 12
-110 8 -8 47 -12 111 -12 96 0 98 0 95 -22 -3 -23 -6 -23 -160 -26 l-158 -3 0
136 0 135 50 0 50 0 0 -98z"/>
<path d="M1312 1398 c3 -31 5 -33 48 -36 25 -2 69 -1 98 3 49 6 52 8 52 36 l0
29 -101 0 -100 0 3 -32z m178 -3 c0 -13 -14 -15 -82 -13 -54 2 -83 7 -86 16
-3 9 18 12 82 12 71 0 86 -3 86 -15z"/>
</g>
</svg>
