<?xml version="1.0" standalone="no"?>
<!DOCTYPE svg PUBLIC "-//W3C//DTD SVG 20010904//EN"
 "http://www.w3.org/TR/2001/REC-SVG-20010904/DTD/svg10.dtd">
<svg version="1.0" xmlns="http://www.w3.org/2000/svg"
 width="299.000000pt" height="270.000000pt" viewBox="0 0 299.000000 270.000000"
 preserveAspectRatio="xMidYMid meet">

<g transform="translate(0.000000,270.000000) scale(0.100000,-0.100000)"
fill="#000000" stroke="none">
<path d="M1073 2318 c-208 -182 -414 -363 -459 -402 -44 -39 -168 -148 -275
-242 -262 -231 -259 -228 -259 -257 0 -43 19 -49 117 -38 48 5 96 13 105 16
17 7 18 -27 18 -627 0 -695 -3 -660 60 -693 21 -11 63 -15 155 -15 149 0 189
13 212 67 l14 34 652 -6 c764 -7 813 -9 828 -36 6 -11 25 -29 42 -39 27 -17
51 -20 160 -20 144 0 176 10 203 61 14 28 16 100 15 650 -1 340 3 620 8 623 4
3 61 1 125 -5 123 -11 146 -7 146 31 0 10 -261 234 -677 581 -373 310 -699
583 -726 607 -26 23 -56 42 -66 42 -11 0 -189 -149 -398 -332z m453 -10 c16
-13 135 -113 264 -222 129 -110 303 -253 385 -319 83 -66 210 -167 282 -226
l132 -106 1 -642 c0 -625 -1 -643 -19 -653 -25 -13 -237 -13 -262 0 -18 10
-19 24 -19 265 0 217 -2 256 -16 269 -14 14 -98 16 -781 16 -699 0 -768 -1
-785 -17 -17 -15 -18 -37 -18 -268 0 -182 -3 -254 -12 -263 -18 -18 -248 -16
-274 2 -18 14 -19 34 -22 641 -1 344 1 632 5 639 7 13 92 82 325 267 167 133
266 215 423 348 237 202 345 291 354 291 5 0 21 -10 37 -22z m1300 -866 c-22
-5 -30 3 -21 18 5 8 11 7 22 -2 15 -12 14 -13 -1 -16z m-2636 3 c0 -8 -7 -15
-15 -15 -16 0 -20 12 -8 23 11 12 23 8 23 -8z m2547 9 c-3 -3 -12 -4 -19 -1
-8 3 -5 6 6 6 11 1 17 -2 13 -5z m-2460 -10 c-3 -3 -12 -4 -19 -1 -8 3 -5 6 6
6 11 1 17 -2 13 -5z m1948 -844 l0 -25 -705 -5 c-388 -3 -720 -3 -737 -1 -26
2 -33 8 -33 25 0 13 3 26 7 29 3 4 335 6 737 5 l731 -3 0 -25z m-10 -130 l0
-55 -725 0 -725 0 -3 44 c-2 24 -1 50 2 57 5 12 118 14 728 12 l723 -3 0 -55z
m6 -120 c0 -5 1 -26 1 -45 0 -19 -1 -48 -1 -65 l-1 -30 -417 1 c-230 1 -557 4
-728 8 l-310 6 -3 68 -3 67 731 0 c479 0 730 -3 731 -10z"/>
<path d="M710 1390 c-19 -19 -20 -33 -20 -265 0 -232 1 -246 20 -265 20 -20
33 -20 780 -20 747 0 760 0 780 20 19 19 20 33 20 269 0 247 0 250 -22 265
-20 14 -111 16 -780 16 -745 0 -758 0 -778 -20z m1508 -263 c2 -181 0 -208
-13 -213 -24 -10 -27 0 -11 38 23 55 -5 129 -67 178 -15 12 -27 27 -27 34 0 7
-9 25 -20 39 -11 14 -20 33 -20 42 0 26 -55 75 -84 75 -34 0 -94 -56 -100 -92
-7 -40 -12 -46 -54 -53 -70 -11 -110 -46 -103 -88 3 -17 -79 57 -85 77 -4 12
-15 32 -25 45 -11 13 -19 32 -19 43 0 28 -48 68 -82 68 -37 0 -94 -53 -103
-96 -11 -50 -13 -53 -34 -47 -45 12 -133 -53 -122 -91 1 -5 -15 6 -35 24 -22
19 -54 65 -76 111 -53 107 -88 123 -154 72 -23 -19 -36 -40 -40 -63 -9 -49
-21 -60 -64 -60 -27 0 -48 -8 -69 -26 -41 -34 -41 -79 -1 -154 40 -73 39 -82
-7 -78 l-38 3 -3 200 c-1 110 0 205 2 212 4 11 147 13 728 11 l723 -3 3 -208z
m-1158 88 c0 -13 11 -35 25 -49 14 -14 25 -36 25 -50 0 -16 7 -27 20 -31 29
-9 70 -63 70 -92 0 -38 -56 -89 -108 -98 -53 -9 -110 1 -150 25 -35 21 -96
138 -86 164 9 23 51 20 57 -4 5 -20 6 -20 39 -1 18 10 32 24 30 30 -1 6 5 25
13 41 8 16 15 36 15 44 0 20 31 57 42 50 4 -3 8 -16 8 -29z m464 19 c3 -9 6
-24 6 -33 0 -10 9 -26 20 -36 11 -10 20 -28 20 -40 0 -14 15 -32 45 -53 51
-36 66 -72 44 -111 -25 -43 -73 -64 -151 -64 -87 0 -111 16 -157 106 -31 60
-32 67 -18 81 21 21 34 20 47 -3 10 -19 11 -19 40 -3 18 10 30 25 30 38 0 11
7 29 15 40 8 10 15 29 15 42 0 12 5 22 10 22 6 0 10 7 10 15 0 20 16 19 24 -1z
m466 -18 c0 -12 11 -33 25 -46 14 -13 25 -34 25 -46 0 -14 12 -31 33 -45 44
-30 57 -48 57 -80 0 -42 -9 -57 -47 -80 -27 -17 -51 -22 -102 -22 -95 0 -122
17 -166 105 -34 68 -35 73 -19 85 25 18 42 16 46 -6 3 -18 5 -18 38 -2 24 11
36 24 38 41 2 14 11 33 19 42 9 10 13 24 9 33 -6 16 23 55 37 48 4 -2 7 -14 7
-27z m-694 -261 c19 -45 19 -45 -17 -45 -29 0 -30 1 -24 33 13 58 20 61 41 12z
m472 -12 c11 -33 11 -33 -23 -33 l-33 0 15 40 c18 44 24 43 41 -7z"/>
<path d="M1294 486 c-3 -8 -4 -23 -2 -33 3 -17 23 -18 291 -21 l287 -2 0 35 0
35 -285 0 c-240 0 -287 -2 -291 -14z"/>
<path d="M1291 326 c-7 -8 -11 -27 -9 -43 l3 -28 295 0 295 0 3 28 c7 57 5 57
-298 57 -229 0 -280 -3 -289 -14z"/>
</g>
</svg>
