<?xml version="1.0" standalone="no"?>
<!DOCTYPE svg PUBLIC "-//W3C//DTD SVG 20010904//EN"
 "http://www.w3.org/TR/2001/REC-SVG-20010904/DTD/svg10.dtd">
<svg version="1.0" xmlns="http://www.w3.org/2000/svg"
 width="940.000000pt" height="249.000000pt" viewBox="0 0 940.000000 249.000000"
 preserveAspectRatio="xMidYMid meet">

<g transform="translate(0.000000,249.000000) scale(0.100000,-0.100000)"
fill="#000000" stroke="none">
<path d="M1008 2088 c-133 -117 -379 -334 -547 -481 -168 -148 -309 -274 -312
-280 -4 -7 -3 -22 2 -35 8 -22 13 -23 66 -17 32 4 73 10 90 15 l33 8 0 -513 0
-513 31 -26 c29 -24 37 -26 134 -26 121 0 148 8 170 51 l17 31 581 -6 582 -7
20 -23 c34 -39 59 -46 169 -46 103 0 107 1 138 29 l33 29 3 507 3 507 107 -3
c100 -4 107 -3 107 15 0 14 -182 172 -585 508 -321 268 -588 488 -592 488 -4
0 -117 -96 -250 -212z m352 77 c13 -14 21 -25 18 -25 -2 0 -15 11 -28 25 -13
14 -21 25 -18 25 2 0 15 -11 28 -25z m-180 11 c0 -2 -8 -10 -17 -17 -16 -13
-17 -12 -4 4 13 16 21 21 21 13z m231 -53 c13 -16 12 -17 -3 -4 -10 7 -18 15
-18 17 0 8 8 3 21 -13z m-331 -36 c0 -2 -10 -12 -22 -23 l-23 -19 19 23 c18
21 26 27 26 19z m424 -46 c-2 -3 -12 3 -22 13 -16 17 -16 18 5 5 12 -7 20 -15
17 -18z m-117 -83 c54 -45 142 -120 196 -166 54 -46 205 -170 335 -274 130
-105 240 -198 244 -207 4 -9 7 -240 7 -513 1 -439 -1 -498 -15 -512 -20 -20
-201 -23 -227 -4 -15 11 -17 40 -19 223 l-3 210 -610 3 c-335 1 -620 0 -632
-3 -23 -5 -23 -6 -23 -213 0 -148 -3 -211 -12 -220 -13 -13 -192 -17 -222 -6
-14 6 -16 61 -16 528 l1 521 227 180 c124 99 276 223 337 275 278 239 304 260
321 260 8 0 58 -37 111 -82z m-377 69 c0 -2 -10 -12 -22 -23 l-23 -19 19 23
c18 21 26 27 26 19z m-100 -90 c0 -2 -10 -12 -22 -23 l-23 -19 19 23 c18 21
26 27 26 19z m801 -64 c13 -16 12 -17 -3 -4 -10 7 -18 15 -18 17 0 8 8 3 21
-13z m-931 -47 c0 -2 -8 -10 -17 -17 -16 -13 -17 -12 -4 4 13 16 21 21 21 13z
m1001 -13 c13 -16 12 -17 -3 -4 -10 7 -18 15 -18 17 0 8 8 3 21 -13z m-1041
-27 c0 -2 -21 -20 -47 -41 l-48 -37 45 41 c45 41 50 45 50 37z m1161 -73 c13
-16 12 -17 -3 -4 -10 7 -18 15 -18 17 0 8 8 3 21 -13z m59 -48 c13 -14 21 -25
18 -25 -2 0 -15 11 -28 25 -13 14 -21 25 -18 25 2 0 15 -11 28 -25z m-1380
-20 c-19 -19 -37 -35 -42 -35 -8 0 63 69 71 70 3 0 -10 -16 -29 -35z m1451
-42 c13 -16 12 -17 -3 -4 -10 7 -18 15 -18 17 0 8 8 3 21 -13z m-1521 -17 c0
-2 -8 -10 -17 -17 -16 -13 -17 -12 -4 4 13 16 21 21 21 13z m-70 -60 c0 -2 -8
-10 -17 -17 -16 -13 -17 -12 -4 4 13 16 21 21 21 13z m1705 -16 c10 -11 16
-20 13 -20 -3 0 -13 9 -23 20 -10 11 -16 20 -13 20 3 0 13 -9 23 -20z m-1755
-35 c-7 -8 -17 -15 -23 -15 -6 0 -2 7 9 15 25 19 30 19 14 0z m1801 -2 c13
-16 12 -17 -3 -4 -10 7 -18 15 -18 17 0 8 8 3 21 -13z m-1841 -26 c0 -2 -10
-12 -22 -23 l-23 -19 19 23 c18 21 26 27 26 19z m1933 -56 c-2 -3 -16 8 -31
24 l-27 28 31 -24 c17 -13 30 -26 27 -28z m-2003 -4 c0 -2 -10 -12 -22 -23
l-23 -19 19 23 c18 21 26 27 26 19z m2079 -54 c2 -2 -2 -3 -10 -3 -8 0 -23 13
-33 28 l-19 27 29 -25 c16 -14 31 -26 33 -27z m-2124 -3 c3 -5 -1 -10 -10 -10
-9 0 -13 5 -10 10 3 6 8 10 10 10 2 0 7 -4 10 -10z m2038 3 c-7 -2 -19 -2 -25
0 -7 3 -2 5 12 5 14 0 19 -2 13 -5z m-436 -663 c26 0 30 -3 26 -20 -5 -20 -14
-20 -589 -20 -575 0 -584 0 -584 20 0 19 8 20 173 22 132 2 732 1 974 -2z m23
-120 l0 -50 -585 0 -585 0 0 50 0 50 585 0 585 0 0 -50z m4 -148 c0 -34 -3
-64 -6 -67 -3 -3 -267 -2 -587 1 l-581 7 0 58 0 59 238 3 c130 1 395 2 587 2
l350 0 -1 -63z"/>
<path d="M658 1289 c-16 -9 -18 -30 -18 -212 0 -111 4 -208 8 -215 7 -10 140
-12 633 -10 l624 3 3 210 c2 185 0 211 -14 222 -22 16 -1210 18 -1236 2z
m1202 -214 c0 -174 0 -175 -22 -175 -17 0 -19 3 -10 12 29 29 5 135 -36 157
-9 5 -32 39 -50 76 -40 80 -69 98 -109 69 -30 -23 -39 -38 -48 -76 -5 -24 -10
-28 -39 -28 -36 0 -86 -32 -86 -56 0 -42 -58 17 -98 99 -18 37 -36 67 -41 67
-5 0 -16 3 -24 6 -22 8 -85 -52 -89 -84 -3 -23 -9 -28 -40 -32 -41 -6 -88 -41
-88 -67 0 -28 -64 47 -94 110 -28 60 -53 81 -83 70 -29 -10 -63 -45 -63 -64 0
-36 -12 -49 -45 -49 -74 0 -107 -67 -66 -134 10 -17 22 -41 26 -53 6 -21 3
-23 -29 -23 l-36 0 0 175 0 175 585 0 585 0 0 -175z m-928 70 c1 -10 11 -27
21 -37 9 -10 17 -27 17 -37 0 -11 14 -27 34 -39 56 -33 53 -96 -5 -131 -39
-24 -125 -22 -163 3 -30 19 -79 112 -71 135 6 21 45 25 45 5 0 -17 1 -17 34
-4 16 6 26 17 26 30 0 11 4 28 9 38 5 9 15 29 22 45 13 29 25 26 31 -8z m378
-3 c0 -7 10 -26 21 -41 12 -16 18 -34 15 -40 -4 -6 1 -14 11 -18 33 -11 63
-46 63 -73 0 -16 -12 -37 -31 -56 -27 -26 -37 -29 -93 -28 -78 1 -99 15 -137
89 -23 45 -26 59 -16 68 21 20 38 19 44 -2 5 -19 7 -19 29 -4 13 8 24 23 24
33 0 10 7 23 15 30 9 7 14 19 11 27 -8 19 26 56 36 40 4 -6 8 -18 8 -25z m370
5 c0 -12 9 -28 20 -35 11 -7 20 -23 20 -37 0 -17 9 -29 30 -40 58 -30 59 -95
4 -132 -37 -24 -131 -24 -167 0 -35 23 -85 123 -69 139 19 19 42 18 42 -2 0
-17 2 -17 31 -3 17 8 28 21 25 28 -2 7 2 22 10 33 8 12 13 25 12 29 -4 14 23
54 33 48 5 -4 9 -16 9 -28z m-185 -203 c19 -46 20 -44 -15 -44 -27 0 -30 2
-20 19 5 11 10 29 10 40 0 31 8 26 25 -15z m-367 -16 c11 -27 10 -28 -18 -28
-33 0 -35 5 -20 46 11 29 19 25 38 -18z"/>
<path d="M1120 545 l0 -25 230 0 230 0 0 25 0 25 -230 0 -230 0 0 -25z m23 0
c-3 -9 -8 -14 -10 -11 -3 3 -2 9 2 15 9 16 15 13 8 -4z m425 -10 c-3 -3 -9 2
-12 12 -6 14 -5 15 5 6 7 -7 10 -15 7 -18z"/>
<path d="M1114 426 c-3 -8 -4 -23 -2 -33 3 -17 21 -18 236 -21 l233 -2 -3 32
-3 33 -228 3 c-192 2 -228 0 -233 -12z m376 -39 c41 -2 -23 -4 -142 -5 -120
-1 -218 1 -218 6 0 6 175 6 360 -1z"/>
<path d="M5610 1684 c-222 -47 -405 -233 -456 -461 -22 -99 -15 -250 16 -343
62 -186 209 -331 390 -384 129 -38 304 -28 427 25 263 113 409 428 333 723
-29 113 -73 190 -160 277 -147 149 -345 208 -550 163z m263 -69 c189 -49 340
-203 388 -395 7 -30 13 -98 13 -150 -2 -159 -58 -286 -175 -394 -203 -188
-543 -182 -739 14 -102 102 -153 233 -154 390 0 253 153 464 389 531 75 22
203 24 278 4z"/>
<path d="M5667 1450 c-155 -39 -247 -176 -247 -371 0 -247 161 -398 382 -359
102 18 162 64 213 164 l40 79 0 121 c0 112 -2 126 -28 182 -34 73 -94 135
-159 164 -54 24 -148 33 -201 20z m157 -72 c58 -18 128 -90 152 -159 28 -79
25 -217 -5 -284 -48 -109 -137 -162 -255 -153 -101 8 -159 51 -205 148 -21 46
-26 69 -26 145 0 61 6 106 18 140 47 137 181 204 321 163z"/>
<path d="M2562 1672 c-10 -7 -12 -132 -10 -593 l3 -584 339 -3 c242 -2 343 1
352 9 19 15 20 249 2 267 -8 8 -66 12 -195 12 l-183 0 0 80 0 80 169 0 c93 0
176 3 185 6 24 9 24 269 0 278 -9 3 -92 6 -185 6 l-169 0 0 80 0 80 183 0
c129 0 187 4 195 12 17 17 17 249 0 266 -14 14 -664 17 -686 4z m628 -137 l0
-75 -174 0 c-96 0 -181 -3 -190 -6 -24 -9 -24 -279 0 -288 9 -3 92 -6 185 -6
l169 0 0 -75 0 -75 -169 0 c-93 0 -176 -3 -185 -6 -24 -9 -24 -279 0 -288 9
-3 94 -6 190 -6 l174 0 0 -75 0 -75 -290 0 -290 0 0 525 0 525 290 0 290 0 0
-75z"/>
<path d="M4132 1668 c-19 -19 -17 -1151 2 -1167 9 -8 60 -11 157 -9 l144 3 3
203 2 202 73 0 c220 0 365 74 433 223 27 57 29 71 29 177 0 103 -3 121 -26
171 -48 101 -139 167 -268 195 -87 18 -531 20 -549 2z m584 -79 c56 -17 79
-31 121 -73 66 -66 88 -134 80 -244 -10 -131 -69 -216 -187 -271 -48 -22 -71
-26 -190 -29 -74 -2 -141 -9 -147 -14 -10 -8 -13 -61 -13 -204 l0 -194 -95 0
-95 0 0 525 0 525 229 0 c205 0 236 -2 297 -21z"/>
<path d="M4393 1469 c-9 -9 -13 -59 -13 -175 0 -132 3 -164 15 -174 26 -21
175 -7 226 21 68 38 84 68 84 154 0 87 -17 117 -87 153 -55 28 -205 42 -225
21z m185 -74 c65 -26 89 -93 56 -156 -19 -39 -68 -59 -139 -59 l-55 0 0 115 0
115 50 0 c27 0 67 -7 88 -15z"/>
<path d="M6521 1666 c-9 -11 -11 -120 -9 -443 3 -417 4 -429 26 -484 34 -85
77 -143 136 -183 132 -92 365 -111 541 -45 117 44 213 169 235 309 5 36 10
238 10 451 0 317 -2 389 -14 398 -9 8 -60 11 -157 9 l-144 -3 -5 -390 c-5
-364 -7 -393 -25 -430 -25 -50 -54 -65 -130 -65 -73 0 -102 14 -129 60 -20 33
-21 54 -26 430 l-5 395 -146 3 c-118 2 -148 0 -158 -12z m249 -404 c0 -391 5
-429 64 -488 83 -83 267 -66 324 29 36 59 42 126 42 472 l0 335 96 0 95 0 -3
-412 c-3 -407 -3 -414 -26 -463 -61 -132 -182 -195 -377 -195 -253 0 -380 100
-405 322 -6 45 -10 233 -10 416 l0 332 100 0 100 0 0 -348z"/>
<path d="M7652 1668 c-17 -17 -18 -1148 0 -1166 14 -14 664 -17 686 -4 9 7 12
42 10 143 l-3 134 -192 3 -193 2 -2 448 -3 447 -145 3 c-105 2 -149 -1 -158
-10z m248 -496 c0 -327 3 -441 12 -450 8 -8 66 -12 195 -12 l183 0 0 -75 0
-75 -290 0 -290 0 0 525 0 525 95 0 95 0 0 -438z"/>
<path d="M8513 1673 c-10 -3 -13 -41 -13 -138 0 -112 2 -134 16 -139 9 -3 69
-6 135 -6 l119 0 2 -447 3 -448 144 -3 c97 -2 148 1 157 9 12 9 14 88 14 450
l0 439 125 0 c113 0 125 2 135 19 13 25 13 227 0 252 -10 18 -25 19 -418 18
-224 0 -413 -3 -419 -6z m777 -138 l0 -75 -119 0 c-95 0 -123 -3 -135 -16 -14
-14 -16 -68 -16 -450 l0 -434 -95 0 -95 0 0 438 c0 327 -3 441 -12 450 -8 8
-53 12 -135 12 l-123 0 0 75 0 75 365 0 365 0 0 -75z"/>
<path d="M3452 1052 c-9 -7 -12 -41 -10 -138 l3 -129 225 -3 c124 -1 235 0
248 3 21 5 22 9 22 128 0 82 -4 127 -12 135 -14 14 -454 17 -476 4z m428 -132
l0 -70 -190 0 -190 0 0 70 0 70 190 0 190 0 0 -70z"/>
</g>
</svg>
