<?xml version="1.0" standalone="no"?>
<!DOCTYPE svg PUBLIC "-//W3C//DTD SVG 20010904//EN"
 "http://www.w3.org/TR/2001/REC-SVG-20010904/DTD/svg10.dtd">
<svg version="1.0" xmlns="http://www.w3.org/2000/svg"
 width="891.000000pt" height="330.000000pt" viewBox="0 0 891.000000 330.000000"
 preserveAspectRatio="xMidYMid meet">

<g transform="translate(0.000000,330.000000) scale(0.100000,-0.100000)"
fill="#000000" stroke="none">
<path d="M1609 2733 c-124 -109 -297 -261 -385 -339 -87 -77 -312 -274 -499
-438 -187 -165 -344 -307 -349 -317 -5 -10 -6 -29 -2 -43 5 -21 12 -26 39 -26
39 1 175 18 199 26 17 5 18 -25 18 -666 0 -729 -1 -710 56 -740 20 -11 64 -15
175 -15 165 0 189 8 219 74 l15 32 510 -6 c281 -3 632 -8 780 -11 l270 -6 20
-31 c31 -47 79 -59 230 -55 106 2 136 6 159 21 57 38 56 28 56 748 l0 661 48
-6 c26 -3 88 -8 138 -12 75 -5 92 -3 103 10 7 9 11 22 8 30 -3 7 -331 285
-729 617 -398 331 -745 622 -773 646 -27 24 -57 43 -65 43 -9 0 -117 -89 -241
-197z m292 90 c13 -16 12 -17 -3 -4 -17 13 -22 21 -14 21 2 0 10 -8 17 -17z
m-91 3 c0 -2 -8 -10 -17 -17 -16 -13 -17 -12 -4 4 13 16 21 21 21 13z m195
-94 c-5 -6 -75 52 -75 61 0 5 18 -7 39 -25 22 -18 38 -34 36 -36z m-245 55 c0
-2 -15 -16 -32 -33 l-33 -29 29 33 c28 30 36 37 36 29z m-90 -80 c0 -2 -12
-14 -27 -28 l-28 -24 24 28 c23 25 31 32 31 24z m410 -32 c23 -19 38 -35 33
-35 -10 1 -91 70 -81 70 3 0 25 -16 48 -35z m-490 -38 c0 -2 -10 -12 -22 -23
l-23 -19 19 23 c18 21 26 27 26 19z m625 -78 c11 -12 -1 -5 -27 16 -27 22 -48
41 -48 43 0 7 56 -36 75 -59z m-700 1 c-16 -16 -34 -30 -39 -30 -10 1 53 59
63 60 3 0 -8 -13 -24 -30z m477 -57 c194 -163 223 -187 298 -253 113 -99 388
-322 639 -519 47 -36 93 -74 103 -83 17 -17 18 -56 18 -703 0 -666 -1 -685
-19 -695 -29 -15 -273 -13 -295 3 -16 12 -18 36 -18 277 0 214 -2 269 -14 287
l-14 23 -811 0 c-539 0 -817 -3 -830 -10 -18 -10 -19 -24 -19 -285 0 -333 16
-305 -177 -305 -106 0 -135 3 -147 16 -14 14 -16 90 -16 692 0 372 4 682 8
687 4 6 34 32 67 58 282 221 613 492 829 676 142 122 267 221 276 221 10 0 65
-39 122 -87z m333 -34 c11 -12 -1 -5 -27 16 -27 22 -48 41 -48 43 0 7 56 -36
75 -59z m-925 -9 c-30 -27 -59 -50 -64 -50 -5 0 -7 2 -5 4 2 2 28 24 57 50 29
25 56 46 60 46 4 0 -18 -23 -48 -50z m981 -37 c13 -16 12 -17 -3 -4 -10 7 -18
15 -18 17 0 8 8 3 21 -13z m-1061 -26 c0 -2 -12 -14 -27 -28 l-28 -24 24 28
c23 25 31 32 31 24z m1115 -17 c10 -11 16 -20 13 -20 -3 0 -13 9 -23 20 -10
11 -16 20 -13 20 3 0 13 -9 23 -20z m-1205 -63 c0 -2 -12 -14 -27 -28 l-28
-24 24 28 c23 25 31 32 31 24z m1340 -52 c23 -19 38 -35 33 -35 -10 1 -91 70
-81 70 3 0 25 -16 48 -35z m-1420 -19 c0 -2 -26 -25 -57 -51 l-58 -47 55 51
c54 50 60 55 60 47z m1545 -87 c11 -13 -1 -6 -27 15 -27 21 -48 40 -48 43 0 8
54 -34 75 -58z m-1685 -32 c0 -2 -15 -16 -32 -33 l-33 -29 29 33 c28 30 36 37
36 29z m1811 -74 c8 -10 -10 2 -38 26 -29 23 -53 45 -53 48 0 7 75 -54 91 -74z
m-1901 -6 c0 -2 -12 -14 -27 -28 l-28 -24 24 28 c23 25 31 32 31 24z m1955
-37 c10 -11 16 -20 13 -20 -3 0 -13 9 -23 20 -10 11 -16 20 -13 20 3 0 13 -9
23 -20z m46 -37 c13 -16 12 -17 -3 -4 -17 13 -22 21 -14 21 2 0 10 -8 17 -17z
m-2086 -12 c-3 -6 -11 -11 -17 -11 -6 0 -6 6 2 15 14 17 26 13 15 -4z m2209
-100 c-2 -3 -24 15 -47 38 l-42 44 47 -38 c26 -22 45 -41 42 -44z m-2274 45
c-55 -51 -182 -158 -184 -155 -5 6 177 168 189 168 5 1 3 -5 -5 -13z m2330
-82 c0 -2 -9 0 -20 6 -11 6 -20 13 -20 16 0 2 9 0 20 -6 11 -6 20 -13 20 -16z
m128 -108 c45 -37 82 -70 82 -72 0 -2 -9 -4 -21 -4 -13 0 -19 5 -16 13 3 8
-28 40 -79 81 -46 38 -84 70 -84 73 0 7 11 -2 118 -91z m-2700 -20 c-21 -18
-38 -41 -38 -50 0 -10 -8 -16 -22 -16 -20 1 -16 8 30 50 29 28 56 50 60 50 4
-1 -10 -16 -30 -34z m2670 -43 c-10 -2 -28 -2 -40 0 -13 2 -5 4 17 4 22 1 32
-1 23 -4z m-2625 -10 c-7 -2 -19 -2 -25 0 -7 3 -2 5 12 5 14 0 19 -2 13 -5z
m52 -3 c3 -6 -1 -7 -9 -4 -18 7 -21 14 -7 14 6 0 13 -4 16 -10z m2025 -890 l0
-30 -607 -1 c-335 0 -684 -1 -778 -2 -156 -2 -170 -1 -173 16 -10 49 -47 47
783 47 l775 0 0 -30z m0 -145 l0 -65 -780 0 -780 0 0 65 0 65 780 0 780 0 0
-65z m7 -145 c1 -19 -1 -59 -4 -89 l-5 -53 -596 6 c-329 3 -679 9 -779 12
l-183 6 0 72 c0 40 3 76 7 79 3 4 356 6 782 5 l776 -3 2 -35z"/>
<path d="M1040 1581 c-6 -12 -10 -121 -10 -285 0 -262 0 -265 22 -280 20 -14
115 -16 825 -16 790 0 803 0 823 20 19 19 20 33 20 278 0 217 -2 261 -16 280
l-15 22 -819 0 c-800 0 -820 0 -830 -19z m1610 -276 l0 -235 -26 0 c-17 0 -24
4 -20 13 27 65 29 87 12 132 -11 28 -33 58 -57 77 -21 17 -39 39 -39 49 0 10
-11 31 -25 47 -14 17 -25 37 -25 45 0 28 -50 77 -78 77 -43 -1 -93 -51 -107
-107 l-12 -48 -51 -5 c-55 -6 -87 -28 -106 -72 l-12 -27 -42 40 c-23 22 -42
46 -42 53 0 7 -8 24 -18 37 -11 13 -22 37 -26 52 -9 39 -49 77 -81 77 -40 0
-102 -63 -112 -113 -8 -41 -9 -42 -53 -45 -52 -4 -107 -40 -116 -78 l-6 -24
-31 30 c-17 16 -34 30 -39 30 -4 0 -8 8 -8 18 0 9 -10 33 -23 52 -13 19 -29
50 -37 68 -15 39 -45 62 -78 62 -36 0 -102 -70 -102 -107 0 -39 -16 -53 -65
-53 -31 0 -48 -7 -73 -29 -42 -39 -42 -71 3 -165 19 -41 35 -77 35 -81 0 -3
-21 -5 -47 -3 l-48 3 -3 220 c-1 121 0 225 2 232 4 10 162 13 781 13 l775 0 0
-235z m-730 85 c0 -14 8 -30 20 -38 14 -8 20 -23 20 -47 0 -29 4 -36 25 -41
38 -9 75 -59 75 -101 0 -28 -8 -43 -35 -68 -82 -78 -261 -48 -293 49 -7 21
-21 51 -32 66 -25 35 -27 62 -3 53 11 -4 14 -3 9 5 -4 7 -3 12 3 12 5 0 16 3
25 6 12 5 16 0 16 -21 0 -15 3 -25 8 -23 4 3 22 11 40 18 24 11 32 21 32 40 0
15 6 35 14 46 8 10 12 29 9 42 -4 15 -1 22 10 22 8 0 18 10 21 23 6 22 7 22
21 3 8 -11 15 -31 15 -46z m-506 34 c3 -9 6 -24 6 -34 0 -11 11 -30 25 -44 14
-14 25 -35 25 -48 0 -16 11 -29 38 -43 27 -15 41 -31 52 -62 13 -40 13 -44 -6
-70 -38 -50 -90 -73 -164 -69 -36 2 -80 11 -96 19 -34 17 -64 57 -64 82 0 9
-11 31 -25 49 -28 37 -32 56 -10 56 8 0 15 4 15 9 0 5 9 11 20 14 15 4 22 -1
26 -18 6 -23 6 -23 40 -8 26 13 34 23 34 43 0 14 6 35 14 46 8 10 12 29 9 42
-4 16 -1 22 11 22 9 0 16 7 16 15 0 20 26 19 34 -1z m994 -19 c2 -16 15 -39
28 -52 15 -14 24 -33 24 -51 0 -23 6 -32 30 -42 64 -26 90 -100 52 -146 -35
-44 -72 -58 -146 -58 -98 0 -130 19 -178 109 -35 69 -48 112 -28 100 6 -3 10
-1 10 4 0 6 11 11 25 11 18 0 25 -5 25 -20 0 -25 1 -25 44 1 22 13 33 26 29
35 -3 8 3 26 13 42 10 15 17 35 16 44 -3 20 28 60 43 55 5 -2 12 -17 13 -32z
m-752 -252 c5 -15 19 -49 32 -75 2 -5 -15 -8 -38 -8 -39 0 -42 2 -35 23 4 12
9 34 12 50 6 31 21 36 29 10z m511 -33 l21 -50 -39 0 c-21 0 -39 3 -39 6 0 18
24 94 29 94 4 0 17 -22 28 -50z"/>
<path d="M1672 603 l3 -38 289 -3 c310 -3 320 -1 314 47 l-3 26 -303 3 -303 2
3 -37z m29 8 c-8 -5 -10 -14 -6 -22 6 -11 5 -11 -5 -2 -14 12 -6 33 13 33 8 0
7 -3 -2 -9z m559 -5 c0 -8 -5 -18 -12 -22 -7 -5 -8 -3 -3 6 4 7 2 16 -6 21
-11 7 -10 9 4 9 9 0 17 -6 17 -14z"/>
<path d="M1660 415 l0 -45 308 2 307 3 3 43 3 42 -310 0 -311 0 0 -45z m26 8
c-1 -17 21 -18 289 -23 l290 -5 -292 -3 c-294 -2 -312 0 -299 33 7 20 14 19
12 -2z"/>
<path d="M5801 1329 c-164 -32 -312 -175 -357 -344 -21 -76 -18 -211 6 -288
68 -220 287 -357 513 -319 234 40 389 230 389 477 0 151 -49 265 -158 364
-108 99 -249 138 -393 110z m171 -50 c217 -45 366 -268 329 -492 -26 -154
-129 -287 -262 -338 -87 -33 -218 -33 -299 0 -162 66 -261 218 -261 403 0 131
38 226 125 314 102 101 232 141 368 113z"/>
<path d="M5779 1112 c-125 -65 -175 -250 -109 -400 43 -97 107 -137 220 -137
114 0 176 39 222 140 33 72 33 208 -1 283 -58 129 -206 180 -332 114z m201
-44 c79 -40 116 -123 108 -239 -11 -145 -106 -226 -238 -204 -117 20 -186 158
-151 302 34 137 162 201 281 141z"/>
<path d="M3425 1308 c-3 -7 -4 -215 -3 -463 l3 -450 259 -3 c182 -2 263 1 272
9 18 15 20 189 2 207 -8 8 -57 12 -155 12 l-143 0 0 65 0 64 143 3 142 3 3
108 3 107 -146 0 -145 0 0 60 0 60 143 0 c98 0 147 4 155 12 16 16 16 190 0
206 -18 18 -527 17 -533 0z m495 -103 l0 -65 -150 0 -151 0 3 -107 3 -108 138
-3 137 -3 0 -59 0 -59 -137 -3 -138 -3 -3 -112 -3 -113 151 0 150 0 0 -65 0
-65 -227 2 -228 3 -3 400 c-1 220 0 406 3 412 3 10 59 13 230 13 l225 0 0 -65z"/>
<path d="M4645 1308 c-3 -7 -4 -215 -3 -463 l3 -450 114 -3 c85 -2 117 1 123
10 4 7 8 82 8 166 l0 152 70 0 c142 0 236 42 296 132 57 85 66 227 19 319 -34
65 -112 119 -203 138 -76 16 -421 15 -427 -1z m475 -64 c67 -31 116 -90 130
-158 26 -125 -24 -237 -127 -287 -38 -18 -72 -24 -163 -28 l-115 -6 -3 -162
-2 -163 -75 0 -75 0 0 416 0 416 193 -4 c168 -3 198 -6 237 -24z"/>
<path d="M4844 1147 c-2 -7 -3 -69 -2 -138 l3 -124 62 -3 c118 -6 187 46 187
138 0 60 -23 96 -77 121 -50 22 -165 27 -173 6z m157 -52 c59 -31 62 -111 6
-146 -18 -11 -50 -19 -74 -19 l-43 0 0 90 0 90 40 0 c23 0 54 -7 71 -15z"/>
<path d="M6494 1306 c-3 -7 -4 -164 -2 -347 3 -320 4 -336 26 -391 55 -136
197 -209 379 -194 143 12 232 66 285 174 l33 67 0 350 0 350 -111 3 c-83 2
-114 -1 -122 -11 -7 -9 -12 -115 -14 -321 l-3 -308 -28 -24 c-22 -18 -40 -24
-78 -24 -115 0 -119 14 -119 374 0 156 -3 291 -6 300 -8 22 -232 24 -240 2z
m198 -328 c3 -273 4 -295 23 -328 26 -45 77 -70 140 -70 63 0 114 25 140 70
19 33 20 55 23 328 l3 292 75 0 75 0 -3 -322 -3 -323 -28 -58 c-46 -92 -118
-133 -252 -144 -173 -14 -304 68 -334 208 -7 29 -11 172 -11 344 l0 295 74 0
75 0 3 -292z"/>
<path d="M7375 1308 c-3 -7 -4 -215 -3 -463 l3 -450 270 0 270 0 0 110 0 110
-147 3 -148 3 0 333 c0 184 -3 341 -6 350 -5 13 -25 16 -120 16 -83 0 -116 -4
-119 -12z m197 -385 l3 -348 148 -3 147 -3 0 -64 0 -65 -225 0 -225 0 0 415 0
415 75 0 75 0 2 -347z"/>
<path d="M8044 1307 c-2 -7 -3 -58 -2 -113 l3 -99 98 -3 97 -3 0 -338 c0 -277
3 -341 14 -350 9 -8 51 -11 122 -9 l109 3 3 347 2 347 103 3 102 3 0 110 0
110 -323 3 c-262 2 -323 0 -328 -11z m606 -102 l0 -64 -102 -3 -103 -3 -3
-347 -2 -348 -75 0 -75 0 -2 348 -3 347 -102 3 -103 3 0 58 c0 32 3 61 7 64 3
4 132 7 285 7 l278 0 0 -65z"/>
<path d="M4106 814 c-12 -32 -6 -171 8 -183 9 -8 69 -11 192 -9 l179 3 3 103
3 102 -190 0 c-163 0 -190 -2 -195 -16z m344 -89 l0 -55 -150 0 -150 0 0 55 0
55 150 0 150 0 0 -55z"/>
</g>
</svg>
