<?xml version="1.0" standalone="no"?>
<!DOCTYPE svg PUBLIC "-//W3C//DTD SVG 20010904//EN"
 "http://www.w3.org/TR/2001/REC-SVG-20010904/DTD/svg10.dtd">
<svg version="1.0" xmlns="http://www.w3.org/2000/svg"
 width="277.000000pt" height="53.000000pt" viewBox="0 0 277.000000 53.000000"
 preserveAspectRatio="xMidYMid meet">

<g transform="translate(0.000000,53.000000) scale(0.100000,-0.100000)"
fill="#000000" stroke="none">
<path d="M60 400 l-35 -5 0 -150 0 -150 183 -3 182 -2 0 44 0 45 -110 3 c-133
4 -147 21 -23 28 l88 5 3 32 3 32 -92 3 c-61 2 -94 7 -96 15 -3 9 24 13 104
15 l108 3 3 43 c2 29 -1 42 -10 43 -39 4 -278 3 -308 -1z m298 -42 c-3 -20 -8
-22 -100 -22 -106 -1 -127 -10 -109 -45 10 -19 21 -21 91 -21 73 0 80 -2 80
-20 0 -18 -7 -20 -86 -20 l-85 0 3 -32 3 -33 108 -3 c106 -3 107 -3 107 -27
l0 -25 -137 0 c-200 0 -183 -12 -183 141 l0 129 156 0 c154 0 155 0 152 -22z"/>
<path d="M1218 401 c-81 -26 -118 -72 -119 -148 -2 -62 20 -105 68 -135 33
-20 50 -23 138 -23 82 0 106 4 134 20 49 29 73 67 78 122 9 102 -63 164 -196
169 -42 2 -88 0 -103 -5z m175 -22 c21 -5 52 -23 70 -39 29 -26 32 -33 32 -90
0 -58 -2 -63 -36 -95 -29 -26 -49 -35 -94 -40 -137 -18 -224 16 -245 95 -13
48 0 108 29 134 44 40 165 57 244 35z"/>
<path d="M1246 309 c-28 -22 -36 -73 -16 -109 20 -37 100 -47 139 -17 37 30
32 115 -9 137 -31 17 -85 11 -114 -11z m114 -19 c41 -41 12 -100 -49 -100 -67
0 -97 47 -60 93 26 34 79 37 109 7z"/>
<path d="M2354 396 c-3 -8 -4 -29 -2 -48 3 -32 4 -33 55 -36 l52 -3 3 -107 3
-107 70 0 70 0 3 107 3 107 52 3 52 3 0 45 0 45 -178 3 c-146 2 -178 0 -183
-12z m344 -38 c-2 -17 -10 -22 -33 -23 -16 -1 -42 -2 -57 -3 l-27 -2 -3 -107
-3 -108 -45 0 -45 0 -3 108 -3 107 -54 0 c-52 0 -55 1 -55 25 l0 25 166 0
c165 0 165 0 162 -22z"/>
<path d="M652 248 l3 -153 64 -3 c71 -3 81 3 81 54 l0 32 88 4 c54 3 101 11
123 22 83 39 76 145 -11 180 -31 12 -76 16 -195 16 l-156 0 3 -152z m361 109
c51 -33 47 -110 -8 -136 -17 -9 -71 -17 -125 -19 -55 -3 -98 -9 -102 -16 -4
-6 -8 -26 -8 -44 l0 -32 -42 6 c-24 4 -45 9 -48 11 -6 6 -8 235 -2 246 2 5 73
7 156 5 124 -2 157 -6 179 -21z"/>
<path d="M776 321 c-3 -5 -3 -23 0 -41 l7 -31 72 4 c39 2 77 7 83 11 19 11 14
44 -7 56 -24 12 -148 13 -155 1z m149 -31 c0 -11 -15 -16 -62 -18 -58 -3 -63
-1 -63 18 0 19 5 21 63 18 47 -2 62 -7 62 -18z"/>
<path d="M1550 300 c0 -114 11 -145 62 -182 29 -20 45 -23 128 -23 161 0 199
41 200 213 l0 92 -70 0 -70 0 0 -79 c0 -107 -10 -131 -54 -131 -50 0 -61 20
-62 119 l-2 86 -66 3 -66 3 0 -101z m120 -8 c0 -72 3 -92 18 -104 27 -23 49
-28 81 -17 37 13 51 50 51 140 l0 69 45 0 c29 0 45 -5 46 -12 1 -7 1 -53 0
-102 -1 -77 -4 -93 -23 -113 -27 -29 -76 -43 -148 -43 -138 0 -170 33 -170
178 l0 92 50 0 50 0 0 -88z"/>
<path d="M1982 248 l3 -153 175 0 175 0 3 43 c4 48 12 46 -130 43 l-87 -2 -3
108 -3 108 -68 3 -68 3 3 -153z m120 25 l3 -108 108 -3 c105 -3 108 -3 105
-25 -3 -22 -6 -22 -158 -22 l-155 0 -3 133 -3 132 50 0 50 0 3 -107z"/>
<path d="M420 245 l0 -35 69 0 c108 0 131 7 131 41 l0 29 -100 0 -100 0 0 -35z
m180 0 c0 -13 -14 -15 -82 -13 -54 2 -83 7 -86 16 -3 9 18 12 82 12 71 0 86
-3 86 -15z"/>
</g>
</svg>
