<?xml version="1.0" standalone="no"?>
<!DOCTYPE svg PUBLIC "-//W3C//DTD SVG 20010904//EN"
 "http://www.w3.org/TR/2001/REC-SVG-20010904/DTD/svg10.dtd">
<svg version="1.0" xmlns="http://www.w3.org/2000/svg"
 width="1605.000000pt" height="379.000000pt" viewBox="0 0 1605.000000 379.000000"
 preserveAspectRatio="xMidYMid meet">

<g transform="translate(0.000000,379.000000) scale(0.100000,-0.100000)"
fill="#000000" stroke="none">
<path d="M1793 3598 c-67 -58 -595 -521 -1068 -937 -253 -222 -520 -457 -592
-520 l-133 -116 0 -47 c0 -26 5 -50 11 -54 16 -9 239 16 272 32 l27 12 0 -849
0 -849 36 -39 c48 -54 98 -64 284 -60 176 5 208 17 248 93 l26 49 300 -7 c166
-3 603 -9 972 -12 l672 -7 16 -34 c12 -25 31 -41 69 -58 48 -23 64 -25 197
-25 191 0 243 16 283 85 9 15 13 250 17 860 l5 840 35 -1 c19 -1 96 -5 170 -9
121 -7 138 -6 153 9 22 22 21 32 -2 55 -10 10 -277 234 -592 497 -316 263
-748 624 -961 801 -213 178 -391 323 -397 323 -6 0 -27 -15 -48 -32z m112
-116 c-6 -7 -35 18 -35 31 0 5 9 2 20 -8 11 -10 18 -20 15 -23z m-115 3 c-13
-14 -28 -25 -33 -25 -6 0 0 11 13 25 13 14 28 25 33 25 6 0 0 -11 -13 -25z
m170 -40 c13 -14 21 -25 18 -25 -2 0 -15 11 -28 25 -13 14 -21 25 -18 25 2 0
15 -11 28 -25z m-250 -31 c-8 -8 -23 -20 -34 -26 -19 -10 -18 -8 3 16 26 27
53 37 31 10z m395 -88 c39 -33 72 -64 74 -70 4 -10 -121 95 -164 138 l-20 20
20 -15 c11 -8 52 -41 90 -73z m-475 30 c0 -3 -412 -371 -460 -410 l-25 -20 25
26 c24 25 452 407 458 408 1 0 2 -2 2 -4z m626 -157 c11 -19 -29 7 -51 32
l-20 23 32 -23 c18 -12 35 -27 39 -32z m-330 -31 c20 -17 111 -95 203 -172 92
-78 253 -213 358 -301 105 -88 217 -181 249 -206 33 -26 136 -108 229 -183 94
-75 216 -173 272 -217 56 -45 104 -91 107 -103 3 -11 6 -396 6 -853 0 -820 0
-833 -20 -853 -18 -18 -33 -20 -194 -20 -145 0 -177 3 -190 16 -14 13 -16 60
-16 355 0 326 -1 340 -20 359 -20 20 -33 20 -1040 20 -1007 0 -1020 0 -1040
-20 -19 -19 -20 -33 -20 -355 0 -322 -1 -336 -20 -355 -18 -18 -33 -20 -190
-20 -157 0 -172 2 -190 20 -20 20 -20 33 -20 864 0 789 1 845 18 864 9 11 64
57 122 103 58 46 110 88 116 94 6 5 46 37 89 70 42 33 105 83 139 110 34 28
96 77 137 110 41 32 79 64 85 70 7 5 42 35 79 65 81 67 200 167 326 276 255
219 349 294 370 294 10 0 35 -14 55 -32z m414 -40 l45 -41 -48 34 c-49 34 -65
49 -50 49 4 -1 28 -19 53 -42z m96 -79 c19 -22 19 -22 -3 -10 -24 12 -39 31
-25 31 5 0 17 -10 28 -21z m69 -59 c10 -11 16 -20 13 -20 -3 0 -13 9 -23 20
-10 11 -16 20 -13 20 3 0 13 -9 23 -20z m79 -69 c-3 -3 -15 6 -27 18 l-22 24
27 -19 c14 -10 24 -21 22 -23z m-1444 -4 c0 -2 -19 -19 -42 -37 l-43 -33 34
36 c30 32 51 46 51 34z m1577 -101 c40 -33 71 -62 68 -64 -4 -4 -175 138 -175
145 0 6 25 -13 107 -81z m-1679 15 c-7 -10 -37 -37 -66 -60 -28 -23 -52 -45
-52 -50 0 -5 -8 -12 -17 -15 -10 -3 18 28 62 69 44 41 81 75 83 75 2 0 -3 -8
-10 -19z m1818 -132 c19 -22 19 -22 -3 -10 -24 12 -39 31 -25 31 5 0 17 -10
28 -21z m-1996 -24 c-13 -14 -27 -25 -32 -25 -9 0 42 49 51 50 3 0 -6 -11 -19
-25z m2124 -83 c16 -12 25 -22 20 -22 -5 0 -30 19 -55 43 -25 23 -34 33 -20
21 14 -11 39 -30 55 -42z m-2224 -7 c-18 -19 -36 -32 -39 -29 -5 5 57 63 68
64 3 0 -10 -16 -29 -35z m2440 -173 c13 -13 13 -14 0 -7 -20 11 -180 146 -180
152 0 5 152 -118 180 -145z m-2525 98 c-16 -16 -34 -30 -39 -30 -10 1 53 59
63 60 3 0 -8 -13 -24 -30z m-95 -85 c-13 -14 -28 -25 -34 -25 -6 1 3 12 19 25
39 32 45 32 15 0z m2748 -119 c39 -33 70 -62 67 -64 -4 -4 -69 48 -149 121
-48 44 2 9 82 -57z m-2843 34 c-16 -16 -34 -30 -39 -30 -12 1 49 60 61 60 4 0
-6 -13 -22 -30z m-95 -85 c-13 -14 -28 -25 -33 -25 -6 0 0 11 13 25 13 14 28
25 33 25 6 0 0 -11 -13 -25z m3159 -139 c1 -6 -11 2 -26 15 -16 14 -40 33 -55
42 -16 10 -28 22 -28 28 0 12 109 -72 109 -85z m-3254 54 c-10 -11 -23 -20
-28 -20 -6 0 0 11 13 25 27 29 42 25 15 -5z m-81 -64 c-3 -8 -23 -26 -45 -40
-45 -30 -48 -43 -16 -56 18 -7 14 -9 -23 -9 l-45 0 65 59 c35 33 66 60 67 60
1 0 0 -6 -3 -14z m3440 -75 c19 -21 19 -21 -13 -21 -27 0 -31 3 -22 17 7 14 2
25 -27 51 l-37 34 40 -30 c22 -16 49 -39 59 -51z m-114 -1 c0 -5 -17 -10 -37
-10 -28 0 -34 3 -23 10 20 13 60 13 60 0z m-3233 -30 c3 -10 2 -11 -4 -3 -5 6
-31 14 -58 16 l-50 4 54 -1 c39 -1 56 -5 58 -16z m2541 -1101 c2 -14 -3 -31
-11 -37 -11 -9 -254 -11 -978 -10 l-964 3 -2 25 c-1 14 0 31 2 38 4 10 204 12
977 10 l973 -3 3 -26z m-3 -179 l0 -75 -310 -5 c-170 -3 -609 -5 -975 -5
l-665 0 -3 69 c-2 38 -1 75 2 83 5 11 168 13 978 11 l973 -3 0 -75z m2 -247
l-2 -108 -725 3 c-399 2 -837 7 -975 10 l-250 7 -3 84 c-2 46 -1 90 2 98 4 11
177 13 980 13 l975 0 -2 -107z"/>
<path d="M830 1940 c-19 -19 -20 -33 -20 -349 0 -309 1 -330 19 -352 l19 -24
1022 0 1022 0 19 24 c18 22 19 43 19 352 0 316 -1 330 -20 349 -20 20 -33 20
-1040 20 -1007 0 -1020 0 -1040 -20z m2015 -350 l0 -285 -32 -3 c-18 -2 -33
-1 -33 2 0 2 9 25 20 51 26 61 25 68 -9 142 -20 41 -41 70 -64 85 -23 14 -39
35 -46 58 -6 20 -22 47 -36 60 -14 13 -25 32 -25 42 0 28 -27 76 -49 88 -36
19 -87 12 -123 -17 -49 -41 -56 -53 -65 -108 l-8 -50 -61 -5 c-72 -6 -131 -44
-141 -91 -3 -16 -8 -29 -10 -29 -17 0 -99 87 -109 116 -7 20 -21 46 -31 57
-11 12 -25 41 -32 64 -14 52 -43 73 -97 73 -34 0 -47 -6 -82 -40 -28 -28 -43
-53 -47 -78 -13 -73 -12 -72 -69 -72 -43 0 -61 -6 -95 -31 -23 -16 -47 -43
-53 -59 l-10 -30 -49 42 c-27 23 -49 49 -49 58 0 9 -13 34 -29 56 -15 21 -34
56 -41 77 -17 55 -45 77 -96 77 -68 0 -134 -68 -134 -138 0 -39 -14 -49 -81
-54 -40 -3 -65 -12 -87 -29 -62 -49 -66 -108 -12 -189 16 -25 30 -51 30 -58 0
-7 7 -26 16 -43 l15 -30 -63 3 -63 3 -3 275 c-1 151 0 280 3 287 3 11 199 13
977 11 l973 -3 0 -285z m-915 109 c0 -17 10 -38 25 -53 17 -17 25 -36 25 -59
0 -29 5 -35 40 -51 56 -25 90 -68 90 -117 0 -31 -8 -47 -36 -79 -42 -47 -89
-63 -185 -62 -107 0 -177 43 -195 118 -4 16 -14 38 -24 49 -39 45 -52 95 -25
95 8 0 15 5 15 11 0 6 7 9 15 6 8 -4 17 -2 20 4 10 15 25 0 25 -27 0 -29 -1
-29 53 -3 38 18 43 25 39 48 -2 19 4 37 21 57 18 21 23 34 16 45 -15 23 -10
39 11 39 13 0 20 7 20 18 0 10 3 22 7 26 12 12 43 -34 43 -65z m-634 35 c4
-15 7 -34 8 -43 1 -9 13 -28 29 -43 19 -19 27 -37 27 -61 0 -30 5 -36 41 -52
48 -22 89 -77 89 -119 0 -73 -94 -137 -203 -138 -120 -1 -194 38 -215 115 -6
20 -22 51 -36 70 -30 39 -36 83 -10 73 12 -5 15 -2 10 10 -5 13 -2 15 14 11
11 -3 20 -1 20 4 0 23 21 6 27 -21 3 -17 8 -29 12 -27 3 2 24 11 47 21 36 16
40 21 36 46 -3 18 3 39 16 57 13 18 18 38 15 54 -4 20 0 27 16 32 12 3 21 12
21 21 0 26 29 18 36 -10z m1244 7 c5 -11 10 -31 10 -46 0 -16 10 -35 27 -49
20 -17 27 -33 27 -59 0 -31 4 -37 38 -51 55 -25 88 -69 88 -118 0 -85 -80
-140 -203 -140 -114 -1 -196 45 -213 120 -4 15 -14 36 -24 47 -39 45 -52 95
-25 95 8 0 15 5 15 11 0 6 9 8 20 4 12 -4 20 -2 20 5 0 6 5 8 10 5 6 -3 10
-17 10 -31 0 -29 -1 -29 54 -2 40 19 44 24 40 48 -4 19 1 35 19 56 18 21 24
37 20 57 -4 20 -1 27 11 27 9 0 16 8 16 20 0 26 26 26 40 1z m-934 -358 c9
-27 21 -52 26 -57 17 -20 7 -26 -43 -26 -49 0 -51 1 -44 23 4 12 12 41 18 65
5 23 14 42 18 42 4 0 15 -21 25 -47z m627 -8 c8 -22 18 -48 22 -57 6 -16 1
-18 -44 -18 -28 0 -51 1 -51 3 0 2 7 26 16 53 9 27 18 55 20 63 6 20 20 4 37
-44z"/>
<path d="M1614 746 c-3 -8 -4 -29 -2 -48 l3 -33 375 0 375 0 0 45 0 45 -373 3
c-314 2 -373 0 -378 -12z m32 -36 c0 -12 -4 -16 -9 -11 -5 5 -6 14 -3 20 10
15 12 14 12 -9z m704 0 c0 -11 -4 -20 -8 -20 -4 0 -8 9 -8 20 0 11 4 20 8 20
4 0 8 -9 8 -20z"/>
<path d="M1604 516 c-3 -8 -4 -31 -2 -52 l3 -39 385 0 385 0 3 53 3 52 -386 0
c-321 0 -387 -2 -391 -14z m391 -16 c-311 -4 -360 -7 -360 -20 0 -13 50 -16
365 -20 l365 -5 -372 -3 -373 -2 0 30 0 30 368 -2 367 -3 -360 -5z"/>
<path d="M9223 2354 c-102 -17 -187 -45 -278 -90 -289 -146 -425 -427 -425
-882 0 -603 261 -920 800 -973 179 -18 375 3 533 57 106 36 203 98 289 185 64
64 85 94 127 181 96 198 132 465 100 745 -44 393 -216 628 -542 739 -154 53
-419 69 -604 38z m450 -49 c191 -34 322 -98 437 -214 160 -161 224 -367 223
-716 0 -146 -4 -200 -22 -284 -71 -339 -243 -522 -566 -608 -90 -23 -118 -26
-285 -27 -201 0 -260 8 -398 54 -257 88 -410 271 -475 570 -18 80 -21 129 -21
310 0 197 2 224 26 326 58 248 170 401 368 503 140 72 265 98 480 100 90 1
178 -5 233 -14z"/>
<path d="M9400 1941 c-50 -10 -88 -38 -111 -82 -18 -36 -19 -62 -19 -471 0
-430 0 -434 23 -478 32 -62 73 -82 164 -78 85 4 117 22 151 88 22 44 22 49 22
460 0 241 -4 430 -10 450 -14 50 -65 97 -120 109 -50 12 -50 12 -100 2z m120
-59 c71 -35 71 -36 68 -509 -3 -410 -4 -422 -24 -450 -43 -58 -160 -64 -218
-12 l-31 27 -3 419 c-2 230 0 432 3 449 6 37 47 81 78 87 50 10 94 6 127 -11z"/>
<path d="M3850 2120 l0 -220 60 0 60 0 -2 -512 -3 -513 -57 -3 -58 -3 0 -214
0 -215 825 0 825 0 0 405 0 405 -290 0 -290 0 0 -190 0 -190 -120 0 -120 0 0
190 0 190 105 0 105 0 0 160 0 160 -105 0 -105 0 0 165 0 165 120 0 120 0 0
-165 0 -165 290 0 290 0 0 385 0 385 -825 0 -825 0 0 -220z m1608 -167 l2
-333 -245 0 -245 0 0 165 0 165 -165 0 -165 0 0 -215 0 -214 103 -3 102 -3 0
-105 0 -105 -102 -3 -103 -3 0 -234 0 -235 165 0 165 0 0 185 0 185 245 0 245
0 -2 -358 -3 -357 -780 0 -780 0 0 170 0 170 58 3 57 3 0 559 0 560 -60 0 -60
0 0 170 0 170 783 -2 782 -3 3 -332z"/>
<path d="M6670 2121 l0 -221 60 0 60 0 0 -515 0 -515 -60 0 -60 0 0 -215 0
-215 530 0 530 0 0 215 0 214 -112 3 -113 3 -3 146 -3 146 208 6 c232 6 311
20 424 77 178 90 259 248 259 505 0 132 -18 221 -60 304 -62 124 -163 200
-330 247 l-95 27 -617 4 -618 5 0 -221z m1210 158 c241 -30 386 -132 443 -314
18 -58 22 -93 22 -210 0 -155 -10 -206 -58 -298 -37 -71 -101 -130 -182 -168
-115 -54 -161 -61 -412 -66 l-233 -5 0 -194 0 -193 113 -3 112 -3 0 -170 0
-170 -482 -3 -483 -2 0 175 0 175 61 0 62 0 -7 46 c-3 26 -6 278 -6 560 l0
514 -55 0 -55 0 0 170 0 170 538 0 c318 0 572 -4 622 -11z"/>
<path d="M7460 1730 l0 -222 84 3 c141 6 176 49 176 214 -1 171 -35 212 -182
222 l-78 6 0 -223z m188 137 c25 -25 27 -35 30 -121 6 -146 -22 -186 -128
-186 l-50 0 0 171 0 171 60 -4 c49 -4 66 -9 88 -31z"/>
<path d="M10510 2120 l0 -220 59 0 60 0 3 -477 c4 -461 5 -481 27 -552 37
-124 70 -180 151 -262 121 -121 264 -178 502 -200 197 -18 414 11 551 74 209
95 317 258 346 520 6 53 11 276 11 497 l0 400 60 0 60 0 0 220 0 220 -430 0
-430 0 0 -220 0 -220 45 0 45 0 0 -479 c0 -467 0 -479 -20 -504 -43 -54 -147
-54 -189 0 -21 25 -21 37 -21 504 l0 479 45 0 45 0 0 220 0 220 -460 0 -460 0
0 -220z m880 0 l0 -170 -45 0 -45 0 0 -507 c0 -464 2 -511 18 -542 22 -45 73
-71 137 -71 63 0 113 26 137 71 17 31 18 69 18 541 l0 508 -45 0 -45 0 0 170
0 170 385 0 385 0 0 -170 0 -170 -60 0 -60 0 0 -482 c0 -545 -3 -568 -70 -704
-100 -203 -332 -312 -665 -314 -253 -1 -465 65 -591 182 -71 67 -115 144 -146
255 -21 74 -22 101 -26 571 l-3 492 -60 0 -59 0 0 170 0 170 420 0 420 0 0
-170z"/>
<path d="M12480 2120 l0 -220 60 0 60 0 -2 -512 -3 -513 -57 -3 -58 -3 0 -214
0 -215 760 0 760 0 0 325 0 325 -260 0 -259 0 -3 -107 -3 -108 -82 -3 -83 -3
0 516 0 515 110 0 110 0 0 220 0 220 -525 0 -525 0 0 -220z m1000 0 l0 -170
-105 0 -105 0 0 -560 0 -560 125 0 124 0 3 108 3 107 213 3 212 2 0 -285 0
-285 -712 2 -713 3 0 170 0 170 58 3 57 3 0 559 0 560 -60 0 -60 0 0 170 0
170 480 0 480 0 0 -170z"/>
<path d="M14120 2025 l0 -315 225 0 225 0 0 95 0 95 55 0 55 0 0 -515 0 -515
-80 0 -80 0 0 -215 0 -215 520 0 520 0 0 215 0 214 -82 3 -83 3 -3 513 -2 512
55 0 55 0 0 -95 0 -95 225 0 225 0 0 315 0 315 -915 0 -915 0 0 -315z m1790 0
l0 -265 -182 2 -183 3 -3 93 -3 92 -94 0 -95 0 0 -560 0 -559 83 -3 82 -3 0
-170 0 -170 -477 -3 -478 -2 0 175 0 175 80 0 80 0 0 560 0 560 -95 0 -95 0 0
-95 0 -95 -185 0 -185 0 0 265 0 265 875 0 875 0 0 -265z"/>
<path d="M5680 1130 l0 -220 405 0 405 0 0 220 0 220 -405 0 -405 0 0 -220z
m760 0 l0 -170 -360 0 -360 0 0 170 0 170 360 0 360 0 0 -170z"/>
</g>
</svg>
